<svg width="347" height="348" fill="none" xmlns="http://www.w3.org/2000/svg"><path d="M70.5 73.5v-66l-62 66h62zM270 283l3.5 62.5L332 283h-62z" fill="#FA506E"/><path fill="url(#paint0_linear_273_2047)" stroke="#000" stroke-width="12" d="M71 7h270v270H71z"/><path fill="url(#paint1_linear_273_2047)" stroke="#000" stroke-width="12" d="M7 71h270v270H7z"/><path fill="#FA506E" stroke="#000" stroke-width="12" d="M71 71h206v206H71z"/><path stroke="#000" stroke-width="12" d="M342.243 6.243l-68 68"/><path fill-rule="evenodd" clip-rule="evenodd" d="M273.984 339.016l64.258-64.743L347 283l-64 64-9.016-7.984z" fill="#000"/><path d="M73.5 273L9.243 337.743" stroke="#000" stroke-width="12"/><path fill-rule="evenodd" clip-rule="evenodd" d="M1 65L65 1l8.759 8.226L9.5 73.97 1 64.999z" fill="#000"/><defs><linearGradient id="paint0_linear_273_2047" x1="65" y1="1" x2="347" y2="283" gradientUnits="userSpaceOnUse"><stop stop-color="#FAF078"/><stop offset=".517" stop-color="#FAF078"/><stop offset=".517" stop-color="#FAC864"/><stop offset="1" stop-color="#FAC864"/></linearGradient><linearGradient id="paint1_linear_273_2047" x1="13" y1="71" x2="268.5" y2="337.5" gradientUnits="userSpaceOnUse"><stop stop-color="#FA2846"/><stop offset=".484" stop-color="#E72341"/><stop offset=".505" stop-color="#D21E3C"/><stop offset="1" stop-color="#D21E3C"/></linearGradient></defs></svg>