<svg width="21" height="21" fill="none" xmlns="http://www.w3.org/2000/svg"><g clip-path="url(#clip0_14_623)"><path d="M20.5 10.56c0-5.522-4.477-10-10-10s-10 4.478-10 10c0 4.992 3.657 9.129 8.438 9.88v-6.99h-2.54v-2.89h2.54V8.356c0-2.506 1.492-3.89 3.777-3.89 1.094 0 2.238.195 2.238.195v2.461h-1.26c-1.243 0-1.63.77-1.63 1.562v1.875h2.773l-.443 2.891h-2.33v6.988c4.78-.75 8.437-4.887 8.437-9.879z" fill="#000"/></g><defs><clipPath id="clip0_14_623"><path fill="#fff" transform="translate(.5 .5)" d="M0 0h20v20H0z"/></clipPath></defs></svg>