<svg width="13" height="19" fill="none" xmlns="http://www.w3.org/2000/svg"><path d="M10.313 18.148h-8.25A2.062 2.062 0 010 16.085V2.335A2.063 2.063 0 012.063.272h8.25a2.063 2.063 0 012.062 2.063v13.75a2.062 2.062 0 01-2.063 2.063zm-8.25-16.5a.687.687 0 00-.688.687v13.75a.687.687 0 00.688.688h8.25a.688.688 0 00.687-.688V2.335a.687.687 0 00-.688-.688h-8.25z" fill="#F74E6E"/><path d="M7.563 3.022h-2.75a1.375 1.375 0 01-1.375-1.375V.96a.688.688 0 01.687-.688H8.25a.688.688 0 01.688.688v.687a1.375 1.375 0 01-1.376 1.375z" fill="#F74E6E"/></svg>