<svg width="23" height="23" fill="none" xmlns="http://www.w3.org/2000/svg"><g clip-path="url(#clip0_14_600)" fill="#000"><path d="M15.625 20.438h-8.25a2.062 2.062 0 01-2.063-2.063V4.625a2.063 2.063 0 012.063-2.063h8.25a2.063 2.063 0 012.063 2.063v13.75a2.062 2.062 0 01-2.063 2.063zm-8.25-16.5a.688.688 0 00-.688.687v13.75a.687.687 0 00.688.688h8.25a.687.687 0 00.688-.688V4.625a.687.687 0 00-.688-.688h-8.25z"/><path d="M12.875 5.313h-2.75A1.375 1.375 0 018.75 3.938V3.25a.688.688 0 01.688-.688h4.124a.687.687 0 01.688.688v.688a1.375 1.375 0 01-1.375 1.374z"/></g><defs><clipPath id="clip0_14_600"><path fill="#fff" transform="translate(.5 .5)" d="M0 0h22v22H0z"/></clipPath></defs></svg>